<svg width="114" height="114" viewBox="0 0 114 114" fill="none" xmlns="http://www.w3.org/2000/svg">
<g opacity="0.6">
<path fill-rule="evenodd" clip-rule="evenodd" d="M60.9515 8.06141C86.2184 10.0737 106.095 31.2156 106.095 57C106.095 84.1146 84.1146 106.095 57 106.095C29.8854 106.095 7.90469 84.1146 7.90469 57C7.90469 54.8172 6.13517 53.0477 3.95235 53.0477C1.76953 53.0477 0 54.8172 0 57C0 88.4802 25.5198 114 57 114C88.4802 114 114 88.4802 114 57C114 25.5198 88.4802 0 57 0C56.9997 0 56.9994 0 56.9992 0C54.8163 0 53.0468 1.76953 53.0468 3.95235V22.6544C36.6401 24.5908 23.8706 38.4306 23.8706 55.281C23.8706 73.4627 38.7375 88.1393 56.9992 88.1393C75.2608 88.1393 90.1277 73.4627 90.1277 55.281C90.1277 46.0783 86.3087 37.7596 80.1773 31.804C78.6116 30.2831 76.1094 30.3195 74.5885 31.8853C73.0676 33.451 73.104 35.9533 74.6697 37.4741C79.3403 42.0108 82.223 48.3125 82.223 55.281C82.223 69.0279 70.9647 80.2346 56.9992 80.2346C43.0336 80.2346 31.7753 69.0279 31.7753 55.281C31.7753 41.5341 43.0336 30.3274 56.9992 30.3274H60.9515V8.06141ZM60.0452 58.1679C62.5644 57.012 64.314 54.4674 64.314 51.5142C64.314 47.4732 61.0381 44.1973 56.9971 44.1973C52.9561 44.1973 49.6802 47.4732 49.6802 51.5142C49.6802 54.4669 51.4292 57.0112 53.9478 58.1674V67.3672H60.0452V58.1679Z" fill="url(#paint0_linear_86_2829)"/>
</g>
<defs>
<linearGradient id="paint0_linear_86_2829" x1="1.9511" y1="69.0909" x2="112.338" y2="68.7311" gradientUnits="userSpaceOnUse">
<stop stop-color="#4FBFFE"/>
<stop offset="1" stop-color="#7644FF"/>
</linearGradient>
</defs>
</svg>
